<?xml version="1.0" encoding="utf-8"?>
<!-- Generator: Adobe Illustrator 22.1.0, SVG Export Plug-In . SVG Version: 6.00 Build 0)  -->
<svg version="1.1" id="Capa_1" xmlns="http://www.w3.org/2000/svg" xmlns:xlink="http://www.w3.org/1999/xlink" x="0px" y="0px"
	 viewBox="0 0 253 143.9" style="enable-background:new 0 0 253 143.9;" xml:space="preserve">
<style type="text/css">
	.st0{fill:#DDA3A6;}
	.st1{fill:#9A83B4;}
</style>
<g>
	<g>
		<g>
			<path class="st0" d="M41.4,127.4H16c-4.7,0-8.5-3.8-8.5-8.5V87.5c0-1.4,1.1-2.5,2.5-2.5h13.9c-0.9-1.3-1.8-2.8-2.7-4.8
				C13,77.6,8.4,74.6,7.5,71.4c-0.6-1.9,0.3-3.1,0.4-3.2c0.2-0.2,0.4-0.3,0.7-0.4c3.4-0.4,6.7,0.7,9.1,2.5c-0.7-1.9-1.3-4-1.5-6.2
				C9,55.7,5.8,49.4,6.7,45.2c0.4-2.2,1.8-2.9,2-3c0.3-0.1,0.6-0.1,0.9,0c1.6,0.8,3.1,1.9,4.4,3.3c-2.7-7.9-3.1-13.6-1.2-16.8
				c1.2-2,2.8-2.3,3-2.3c0.3,0,0.6,0.1,0.8,0.3c7.4,7.2,4.2,18.9,2.4,23.7c-0.1,1.8-0.3,3.5-0.5,5.1c-0.1,1-0.2,2-0.3,3
				c1.4-2.1,3.6-4,6.7-5.1c0.2-0.1,0.5-0.1,0.7,0c0.7,0.3,2,1.4,2.3,3.2c0.6,3.4-2.1,8-7.9,13.6c0.2,1,0.4,2,0.7,2.9
				c0,0.1,0.1,0.2,0.1,0.3c0.6,2.1,1.3,4,2,5.5c1,2.1,2.4,4.4,3.6,5.9H28c1-1.4,1.9-2.9,2.8-4.4c-5-9.3-4.6-11.8-3.9-12.8
				c0.5-0.6,1.2-0.8,1.6-0.7c2,0.3,3.5,1.3,4.5,2.8c0.9,1.4,1.2,3.1,1.3,4.8c0.9-1.7,1.7-3.4,2.4-4.9c-6.6-12.4-9-19.7-7.1-22.3
				c0.6-0.9,1.6-1,2.1-0.9c3.4,0.5,5.9,2,7.6,4.5c1.6,2.3,2.2,5.2,2.3,7.9c1.5-5,2.7-10.3,3-14.6c-7.9-8.3-11.4-13.5-10.7-16.1
				c0.2-0.8,0.8-1.2,1.2-1.3c1.9-0.5,3.7-0.4,5.3,0.4c-6.3-9.1-9-15.1-8.2-17.9c0.3-1,0.9-1.2,1.1-1.3c2.2-0.8,4.2-0.6,5.9,0.5
				c5.6,3.6,6.9,16.1,7.3,21.3l0.1,0.7c0.3,1.7,0.5,3.1,0.4,4.5c-0.1,1.2-0.1,2.4-0.1,3.6c0,0.2,0,0.5,0,0.7
				c2.7-3.7,7.2-6.5,13.3-5.1c0.4,0.1,1.2,0.5,1.5,1.5c0.3,1.1,1.1,4.4-15.7,17.9c-0.5,1.8-1.1,3.6-1.9,5.4
				c4.1-3.6,9.2-5.3,14.5-1.9c0.4,0.3,0.8,0.9,0.7,1.6c-0.2,1.6-2.4,4.2-18.8,9.2c-0.8,1.8-1.8,3.5-2.7,5.1c4.5-2.9,10-3.9,14.5,0.3
				c0.3,0.3,0.7,1,0.4,1.7c-0.5,1.5-2.9,3.8-18.8,6c-0.8,1.2-1.8,2.2-2.7,3.2c-0.2,0.2-0.4,0.4-0.5,0.6h16.7c1.4,0,2.5,1.1,2.5,2.5
				v11.3H51c0.1,0,0.2-0.1,0.3-0.2l2.7-5.1c0.3-0.5,0.7-0.8,1.3-0.8h6.5c0.5,0,0.9,0.2,1.2,0.6c0.3,0.4,0.3,0.9,0.1,1.4
				c-4,9.8-9.4,21.5-12.8,22.1c0,0,0,0,0,0c-0.1,0-0.2,0-0.3,0.1v2C49.9,123.6,46,127.4,41.4,127.4z M10,87c-0.3,0-0.5,0.2-0.5,0.5
				v31.4c0,3.6,2.9,6.5,6.5,6.5h25.3c3.6,0,6.5-2.9,6.5-6.5v-3c0-0.3,0.1-0.6,0.4-0.8c0.2-0.2,0.5-0.3,0.8-0.2c0.2,0,0.4,0,0.7-0.1
				c0.1,0,0.2,0,0.2,0c1.6-0.5,5.7-7.5,10.9-20.1h-5.3L53,99.5c-0.4,0.8-1.2,1.3-2,1.3h-2.1c-0.6,0-1-0.4-1-1V87.5
				c0-0.3-0.2-0.5-0.5-0.5H10z M61.7,94.7L61.7,94.7L61.7,94.7z M34.9,78.2c-0.2,0.3-0.3,0.6-0.5,0.9c13.5-2,15.9-3.9,16.4-4.4
				C44.3,69.1,36.2,76.9,34.9,78.2z M28.5,69.2c-0.1,0.5,0,2.7,3.5,9.4c0.4-2.1,0.8-5.4-0.6-7.5C30.8,70.1,29.9,69.5,28.5,69.2z
				 M9.3,69.7c-0.1,0.3-0.1,0.6,0.1,1.1c0.5,1.3,2.5,3.9,10.7,6.9c-0.4-1.1-0.8-2.2-1.2-3.5C17.1,71.8,13.5,69.4,9.3,69.7z
				 M28.2,69.1C28.2,69.1,28.3,69.1,28.2,69.1C28.3,69.1,28.2,69.1,28.2,69.1z M18.1,64.2c0.2,1.5,0.6,2.9,1,4.3
				c6.5-6.4,7.1-9.9,6.8-11.4c-0.1-0.8-0.6-1.3-0.9-1.6C20.5,57.2,18.5,61.2,18.1,64.2z M31.5,48.6c0,0-0.1,0.1-0.2,0.2
				c-0.4,0.7-1.2,4.3,6.9,19.5c0.2-0.4,0.4-0.9,0.6-1.3c0-0.1,0-0.1,0-0.2c0.7-2.9,1.9-10.1-1.1-14.6C36.4,50.2,34.3,49,31.5,48.6z
				 M41.7,65.2c-0.1,0.2-0.1,0.4-0.2,0.6c13.1-4.1,15.4-6.2,15.8-6.9C49.9,54.4,43.6,62.4,41.7,65.2z M9.2,44.3
				C9,44.6,8.8,45,8.6,45.7C8.3,47.6,8.9,52,16,60.9c0.1-1.8,0.3-3.7,0.5-5.6c0-0.4,0.1-0.8,0.1-1.2C15.8,50.9,13.4,46.6,9.2,44.3z
				 M46.8,44.2c-0.2,2.3-0.6,4.8-1.1,7.4c12.5-10.2,14.1-13.8,14.2-15c0-0.2,0-0.3,0-0.3C52.9,34.9,48.5,39.4,46.8,44.2z M15.6,28.5
				c-0.3,0.2-0.8,0.5-1.2,1.3c-1,1.9-1.9,6.8,2.9,19.1C19,44.2,21.3,34.6,15.6,28.5z M36,28.9c-0.1,0.5,0,3.2,8.9,12.8
				c0-0.5,0-1.1,0.1-1.6c-0.5-3.2-1.9-8.7-5-10.7C38.8,28.6,37.5,28.5,36,28.9z M34.3,10.1c-0.2,0.4-1.1,4,10.3,19.6
				c-0.6-7.8-2.5-16.8-6.3-19.3C37.1,9.7,35.8,9.5,34.3,10.1z M35.8,28.9C35.8,28.9,35.8,28.9,35.8,28.9
				C35.8,28.9,35.8,28.9,35.8,28.9z M34.2,10.1C34.2,10.1,34.1,10.1,34.2,10.1C34.1,10.1,34.2,10.1,34.2,10.1z"/>
		</g>
	</g>
	<g>
		<path class="st1" d="M26.6,106c-6.9-3-12.8-1-14.4-0.3c-0.3,0.1-0.4,0.4-0.4,0.6v10.9c0,2.9,2.3,5.2,5.2,5.2h23.2
			c2.9,0,5.2-2.3,5.2-5.2v-12.1c0-0.5-0.5-0.8-1-0.6C41.5,105.7,33.2,108.8,26.6,106z"/>
	</g>
</g>
<g>
	<g>
		<path class="st1" d="M97.3,57.1c1.8,0,3.5,0.3,5.1,1c1.6,0.7,3,1.6,4.1,2.8c1.2,1.2,2.1,2.5,2.8,4.1c0.7,1.5,1,3.2,1,5v16.7
			c0,2-0.4,3.8-1.1,5.5c-0.8,1.7-1.8,3.3-3.1,4.5c-1.3,1.3-2.9,2.3-4.7,3.1c-1.8,0.8-3.7,1.1-5.7,1.1H88c-0.3,0-0.4-0.1-0.3-0.4
			l0.8-1.8V59.3l-0.8-1.8c-0.1-0.2,0-0.4,0.3-0.4L97.3,57.1z M106.4,69.9c0-1.2-0.2-2.4-0.7-3.4c-0.5-1.1-1.1-2-2-2.9
			c-0.8-0.8-1.8-1.5-2.9-1.9c-1.1-0.5-2.3-0.7-3.5-0.7h-0.2c-1.3,0.1-2.5,0.6-3.4,1.7c-0.9,1-1.4,2.5-1.4,4.5c0,0.9,0.1,1.7,0.4,2.2
			c0.3,0.5,0.6,1,1.1,1.3c0.4,0.3,0.8,0.5,1.3,0.6c0.4,0.1,0.8,0.1,1.1,0.1c1,0,1.7-0.3,2.1-0.8c0.4-0.5,0.5-1.1,0.4-1.6
			c-0.1-0.4-0.2-0.6-0.4-0.8c-0.2-0.2-0.4-0.2-0.7-0.2c-0.2,0-0.4,0.1-0.6,0.2c-0.2,0.1-0.3,0.3-0.4,0.4c-0.5,0-0.9-0.3-1.2-0.8
			c-0.2-0.5-0.3-1-0.1-1.6c0.1-0.5,0.5-1,1-1.5c0.5-0.4,1.2-0.6,2.2-0.6h0.4c1.1,0.2,2,0.6,2.6,1.4c0.6,0.8,1,1.7,1.2,2.9
			s0.1,2.1-0.2,2.8c-0.3,0.8-0.7,1.4-1.1,1.8c-0.6,0.7-1.3,1.2-2.2,1.6c-0.9,0.4-1.9,0.6-2.9,0.6c-1.4,0-2.7-0.3-3.9-1V97h3.3
			c1.5,0,2.9-0.3,4.2-0.8c1.3-0.5,2.4-1.3,3.4-2.2c1-1,1.7-2.1,2.3-3.3c0.6-1.3,0.8-2.6,0.8-4.1V69.9z"/>
		<path class="st1" d="M129.8,97h-4.4l0,0l0.1-1.7l-3.8-11.8l-3.6,0v11.8l0.7,1.7l0,0h-4.3c0,0,0,0,0,0l0.7-1.7V73.7l-0.7-1.7l0,0
			h8.9c0.1,0,0.3,0,0.6,0c0.3,0,0.6,0.1,1,0.2c0.4,0.1,0.8,0.2,1.3,0.5c0.4,0.2,0.9,0.5,1.3,0.9c0.3,0.3,0.7,0.8,1,1.5
			c0.4,0.7,0.5,1.5,0.5,2.6c0,0.9-0.1,1.6-0.4,2.3c-0.2,0.6-0.6,1.2-1,1.7s-0.8,0.8-1.3,1.1c-0.5,0.3-1,0.5-1.5,0.6l3.9,12L129.8,97
			L129.8,97z M118.1,80.3l5.4,0c0.1,0,0.3,0,0.6-0.1c0.3-0.1,0.6-0.2,0.8-0.4c0.3-0.2,0.5-0.5,0.7-0.8c0.2-0.4,0.3-0.9,0.3-1.5
			c0-0.8-0.2-1.4-0.7-1.9c-0.2-0.2-0.4-0.3-0.6-0.4c-0.2-0.1-0.4-0.1-0.6-0.2c-0.2-0.1-0.5-0.1-0.7-0.1h0h-5.3V80.3z"/>
		<path class="st1" d="M137.5,97h-4.3c0,0,0,0,0,0l0.7-1.7V73.7l-0.7-1.7v0h4.4v0l-0.7,1.7v21.5L137.5,97L137.5,97z"/>
		<path class="st1" d="M156.3,96.9C156.3,96.9,156.3,97,156.3,96.9l-4.4,0v0l0.7-1.7V83.5l-8-7.2v18.9l0.7,1.7l0,0h-4.3c0,0,0,0,0,0
			l0.7-1.7V73.8l-0.7-1.7l0,0h3.5l8.2,7.4v-5.6l-0.7-1.7c0,0,0,0,0,0h4.4l0,0l-0.7,1.7v21.5L156.3,96.9z"/>
		<path class="st1" d="M174.2,96.8c0,0.1,0,0.1-0.1,0.1h-3.9c-0.1,0-0.1,0-0.1-0.1l0.1-1.7l-4.5-14.1l-2.5,2.6v11.6l0.7,1.6
			c0,0.1,0,0.1-0.1,0.1h-4.2c-0.1,0-0.1,0-0.1-0.1l0.7-1.6V73.8l-0.7-1.6c0-0.1,0-0.1,0.1-0.1h4.2c0.1,0,0.1,0,0.1,0.1l-0.7,1.6v5.5
			l6-6.2l0.3-0.8c0-0.1,0-0.1,0-0.1h4.9c0.1,0,0.1,0,0,0.1l-1.4,1.1l-5,5.3l5.3,16.7L174.2,96.8z"/>
		<path class="st1" d="M226.6,100.8h-5.3c-0.1,0-0.1-0.1-0.1-0.2l0.8-2V67l-8.2,18.2c-0.1,0.2-0.2,0.2-0.3,0L204.9,66v28.6
			c0,0.2,0,0.5,0,1.1c0,0.6-0.1,1.2-0.3,2c-0.2,0.8-0.5,1.6-0.8,2.5c-0.4,0.9-0.9,1.7-1.6,2.4c-1.9,1.9-4.4,2.9-7.6,2.9
			c-1.9,0-3.7-0.5-5.2-1.5c-1.5-1-2.7-2.4-3.6-4.1c-0.9-2-1.2-4-1-6.1c0.2-2.1,0.9-4,2.2-5.5c1.1-1.3,2.4-2.3,3.8-2.7
			c1.4-0.5,2.9-0.5,4.3,0c1.3,0.5,2.4,1.3,3.2,2.5c0.8,1.2,1.2,2.5,1.2,4c0,1.4-0.3,2.5-1,3.2c-0.3,0.4-0.8,0.7-1.3,0.8
			c-0.5,0.2-1,0.2-1.5,0.1c-0.5-0.1-0.9-0.3-1.2-0.6c-0.3-0.3-0.5-0.8-0.5-1.4h-0.1c0.4,0,0.8-0.2,1.2-0.4c0.4-0.3,0.6-0.8,0.6-1.6
			c0-0.7-0.2-1.2-0.5-1.7c-0.3-0.5-0.8-0.8-1.4-1c-1.4-0.5-2.7,0-3.9,1.5c-0.8,1-1.2,2.2-1.3,3.6c-0.1,1.4,0.1,2.7,0.7,4
			c0.2,0.3,0.4,0.7,0.6,1.1c0.3,0.4,0.6,0.8,1.1,1.1c0.4,0.3,1,0.6,1.5,0.9c0.6,0.3,1.3,0.4,2.1,0.4c2.1,0,3.7-0.6,4.7-1.7
			c0.5-0.5,0.8-1,1-1.6c0.2-0.6,0.4-1.1,0.5-1.7c0.1-0.6,0.2-1.2,0.2-1.8v-0.1V59.8l-0.8-2.1c0-0.1,0-0.2,0.1-0.2h4.9l8.4,18.6
			l8.3-18.6h4.6c0.2,0,0.2,0.1,0.1,0.2l-0.8,2.1v38.8l0.8,2C226.7,100.7,226.6,100.8,226.6,100.8z"/>
		<path class="st1" d="M243.5,96.8l-0.1,0.4c0,0.1,0,0.1-0.1,0l-0.8-0.2h-11.8c-0.1,0-0.1,0-0.1-0.1l0.7-1.6V73.7l-0.7-1.6
			c0-0.1,0-0.1,0.1-0.1h9.9l0.7-0.2c0,0,0.1,0,0.1,0l1.3,3.5c0,0.1,0,0.1-0.1,0.1l-1.5-0.2h-6.8v5.4h5.5l1.4-0.2
			c0.1,0,0.1,0,0.1,0.1l-0.1,0.3l-0.9,2.8l-0.1,0.4c0,0-0.1,0-0.1,0l-0.7-0.3h-5v10.3h8.7l1.4-0.2c0.1,0,0.1,0,0.1,0.1L243.5,96.8z"
			/>
	</g>
	<g>
		<path class="st0" d="M113.8,127.1L113.8,127.1l-2.6,0c0,0,0,0,0,0l0.4-1v-11.9h-3l-0.9,0.2c0,0,0,0,0,0l0.8-2.1c0,0,0,0,0,0
			l0.4,0.1h7.2l0.4-0.1c0,0,0,0,0,0l0.8,2.1l0,0l-0.9-0.2h-3v11.9L113.8,127.1z"/>
		<path class="st0" d="M127,127.1l-0.1,0.2c0,0.1,0,0.1-0.1,0l-0.5-0.1h-6.9c0,0-0.1,0-0.1-0.1l0.4-0.9v-12.7l-0.4-0.9
			c0-0.1,0-0.1,0.1-0.1h5.9l0.4-0.1c0,0,0,0,0.1,0l0.8,2c0,0,0,0.1-0.1,0.1l-0.9-0.1h-4v3.2h3.3l0.8-0.1c0,0,0.1,0,0.1,0.1l-0.1,0.2
			l-0.5,1.6l-0.1,0.2c0,0,0,0-0.1,0l-0.4-0.2h-3v6.1h5.1l0.8-0.1c0,0,0.1,0,0.1,0.1L127,127.1z"/>
		<path class="st0" d="M141.1,127.1l-0.1,0.2c0,0.1,0,0.1-0.1,0l-0.5-0.1h-6.9c0,0-0.1,0-0.1-0.1l0.4-0.9v-12.7l-0.4-0.9
			c0-0.1,0-0.1,0.1-0.1h5.9l0.4-0.1c0,0,0,0,0.1,0l0.8,2c0,0,0,0.1-0.1,0.1l-0.9-0.1h-4v3.2h3.3l0.8-0.1c0,0,0.1,0,0.1,0.1l-0.1,0.2
			l-0.5,1.6l-0.1,0.2c0,0,0,0-0.1,0l-0.4-0.2h-3v6.1h5.1l0.8-0.1c0,0,0.1,0,0.1,0.1L141.1,127.1z"/>
		<path class="st0" d="M149.3,124.8l1.3,1.5c0,0,0,0,0,0.1l-0.4,0.1c-0.7,0.6-1.6,0.9-2.5,0.9c-0.6,0-1.1-0.1-1.6-0.3
			c-0.5-0.2-0.9-0.5-1.3-0.9c-0.4-0.4-0.7-0.8-0.9-1.3c-0.2-0.5-0.3-1-0.3-1.6v-7.1c0-0.5,0.1-1.1,0.3-1.6c0.2-0.5,0.5-0.9,0.9-1.3
			c0.4-0.4,0.8-0.7,1.3-0.9c0.5-0.2,1-0.3,1.6-0.3c1,0,1.9,0.3,2.7,0.9l0.4,0.1c0,0,0,0,0,0.1l-1.4,1.5c0,0,0,0-0.1,0l-0.2-0.3
			c-0.4-0.3-0.9-0.5-1.5-0.5c-0.6,0-1.1,0.2-1.6,0.7c-0.4,0.4-0.6,1-0.6,1.6v7.2c0,0.6,0.2,1.1,0.7,1.6c0.4,0.4,1,0.7,1.6,0.7
			c0.5,0,1-0.2,1.3-0.5L149.3,124.8L149.3,124.8z"/>
		<path class="st0" d="M155.9,127.4c-0.5,0-1.1-0.1-1.5-0.3c-0.5-0.2-0.9-0.5-1.3-0.9c-0.4-0.4-0.6-0.8-0.8-1.3
			c-0.2-0.5-0.3-1-0.3-1.6v-7.3c0-0.5,0.1-1.1,0.3-1.6c0.2-0.5,0.5-0.9,0.8-1.3c0.4-0.4,0.8-0.6,1.3-0.9s1-0.3,1.5-0.3
			c0.6,0,1.1,0.1,1.6,0.3c0.5,0.2,1,0.5,1.3,0.9c0.4,0.4,0.7,0.8,0.9,1.3c0.2,0.5,0.3,1.1,0.3,1.6v6.8c0,0.6-0.1,1.1-0.3,1.6
			c-0.2,0.5-0.5,0.9-0.9,1.3c-0.4,0.4-0.8,0.7-1.3,0.9C157,127.3,156.5,127.4,155.9,127.4z M155.9,113.9c-0.6,0-1.1,0.2-1.5,0.6
			c-0.4,0.4-0.6,0.9-0.6,1.5v7.3c0,0.6,0.2,1.1,0.6,1.5c0.4,0.4,0.9,0.6,1.5,0.6c0.7,0,1.2-0.2,1.7-0.7c0.5-0.5,0.7-1,0.7-1.7v-6.8
			c0-0.7-0.2-1.2-0.7-1.7C157.1,114.2,156.6,113.9,155.9,113.9z"/>
		<path class="st0" d="M169.9,125.2l-0.6,2.1h0l-0.5-0.1h-6.7c0,0,0,0,0,0l0.4-1v-12.7l-0.4-1c0,0,0-0.1,0-0.1h2.5l0,0.1l-0.4,1
			v11.9h4.8L169.9,125.2C169.8,125.2,169.9,125.2,169.9,125.2z"/>
		<path class="st0" d="M175.2,127.4c-0.5,0-1.1-0.1-1.5-0.3c-0.5-0.2-0.9-0.5-1.3-0.9c-0.4-0.4-0.6-0.8-0.8-1.3
			c-0.2-0.5-0.3-1-0.3-1.6v-7.3c0-0.5,0.1-1.1,0.3-1.6c0.2-0.5,0.5-0.9,0.8-1.3c0.4-0.4,0.8-0.6,1.3-0.9s1-0.3,1.5-0.3
			c0.6,0,1.1,0.1,1.6,0.3c0.5,0.2,1,0.5,1.3,0.9c0.4,0.4,0.7,0.8,0.9,1.3c0.2,0.5,0.3,1.1,0.3,1.6v6.8c0,0.6-0.1,1.1-0.3,1.6
			c-0.2,0.5-0.5,0.9-0.9,1.3c-0.4,0.4-0.8,0.7-1.3,0.9C176.3,127.3,175.8,127.4,175.2,127.4z M175.2,113.9c-0.6,0-1.1,0.2-1.5,0.6
			c-0.4,0.4-0.6,0.9-0.6,1.5v7.3c0,0.6,0.2,1.1,0.6,1.5c0.4,0.4,0.9,0.6,1.5,0.6c0.7,0,1.2-0.2,1.7-0.7c0.5-0.5,0.7-1,0.7-1.7v-6.8
			c0-0.7-0.2-1.2-0.7-1.7C176.4,114.2,175.9,113.9,175.2,113.9z"/>
		<path class="st0" d="M190,117.2l-0.3,0.9v5.2c0,0.6-0.1,1.1-0.3,1.6c-0.2,0.5-0.5,0.9-0.9,1.3c-0.4,0.4-0.8,0.7-1.3,0.9
			c-0.5,0.2-1.1,0.3-1.6,0.3c-0.6,0-1.1-0.1-1.6-0.4c-0.5-0.2-0.9-0.5-1.3-0.9c-0.4-0.4-0.7-0.8-0.9-1.3c-0.2-0.5-0.3-1-0.3-1.6
			v-6.9c0-0.6,0.1-1.1,0.3-1.6c0.2-0.5,0.5-1,0.9-1.4c0.4-0.4,0.8-0.7,1.3-0.9c0.5-0.2,1-0.3,1.6-0.3c1.2,0,2.3,0.5,3.3,1.6l0.4,0.2
			c0,0,0,0,0,0.1l-1.6,1.4l0,0l-0.2-0.4c-0.6-0.7-1.3-1-2-1c-0.3,0-0.6,0.1-0.9,0.2c-0.3,0.1-0.5,0.3-0.7,0.5
			c-0.2,0.2-0.4,0.5-0.5,0.8c-0.1,0.3-0.2,0.6-0.2,0.9v7c0,0.7,0.2,1.2,0.7,1.7c0.5,0.5,1.1,0.7,1.7,0.7c0.3,0,0.6-0.1,0.9-0.2
			c0.3-0.1,0.5-0.3,0.7-0.5c0.2-0.2,0.4-0.5,0.5-0.8c0.1-0.3,0.2-0.6,0.2-0.9v-4.2h-2.7l-0.6,0.2c0,0,0,0,0,0v-2.2c0,0,0,0,0,0
			l0.5,0.2L190,117.2L190,117.2z"/>
		<path class="st0" d="M194.5,127.2H192c0,0,0,0,0,0l0.4-1v-12.7l-0.4-1v0h2.6v0l-0.4,1v12.7L194.5,127.2L194.5,127.2z"/>
		<path class="st0" d="M202.1,124.8l1.3,1.5c0,0,0,0,0,0.1l-0.4,0.1c-0.7,0.6-1.6,0.9-2.5,0.9c-0.6,0-1.1-0.1-1.6-0.3
			c-0.5-0.2-0.9-0.5-1.3-0.9c-0.4-0.4-0.7-0.8-0.9-1.3c-0.2-0.5-0.3-1-0.3-1.6v-7.1c0-0.5,0.1-1.1,0.3-1.6c0.2-0.5,0.5-0.9,0.9-1.3
			c0.4-0.4,0.8-0.7,1.3-0.9c0.5-0.2,1-0.3,1.6-0.3c1,0,1.9,0.3,2.7,0.9l0.4,0.1c0,0,0,0,0,0.1l-1.4,1.5c0,0,0,0-0.1,0l-0.2-0.3
			c-0.4-0.3-0.9-0.5-1.5-0.5c-0.6,0-1.1,0.2-1.6,0.7c-0.4,0.4-0.6,1-0.6,1.6v7.2c0,0.6,0.2,1.1,0.7,1.6c0.4,0.4,1,0.7,1.6,0.7
			c0.5,0,1-0.2,1.3-0.5L202.1,124.8L202.1,124.8z"/>
		<path class="st0" d="M208.7,127.4c-0.5,0-1.1-0.1-1.5-0.3c-0.5-0.2-0.9-0.5-1.3-0.9c-0.4-0.4-0.6-0.8-0.8-1.3
			c-0.2-0.5-0.3-1-0.3-1.6v-7.3c0-0.5,0.1-1.1,0.3-1.6c0.2-0.5,0.5-0.9,0.8-1.3c0.4-0.4,0.8-0.6,1.3-0.9s1-0.3,1.5-0.3
			c0.6,0,1.1,0.1,1.6,0.3c0.5,0.2,1,0.5,1.3,0.9c0.4,0.4,0.7,0.8,0.9,1.3c0.2,0.5,0.3,1.1,0.3,1.6v6.8c0,0.6-0.1,1.1-0.3,1.6
			c-0.2,0.5-0.5,0.9-0.9,1.3c-0.4,0.4-0.8,0.7-1.3,0.9C209.8,127.3,209.3,127.4,208.7,127.4z M208.7,113.9c-0.6,0-1.1,0.2-1.5,0.6
			c-0.4,0.4-0.6,0.9-0.6,1.5v7.3c0,0.6,0.2,1.1,0.6,1.5c0.4,0.4,0.9,0.6,1.5,0.6c0.7,0,1.2-0.2,1.7-0.7c0.5-0.5,0.7-1,0.7-1.7v-6.8
			c0-0.7-0.2-1.2-0.7-1.7C209.9,114.2,209.4,113.9,208.7,113.9z"/>
	</g>
	<path class="st0" d="M121,110.8c-0.1,0-0.1-0.1-0.1-0.2l0-1.5c0,0,0-0.1,0-0.1c0,0,0.1,0,0.2,0l2.7-0.1c0.2,0,0.3,0,0.3,0.2
		l0.5,1.4c0.1,0.2,0,0.3-0.2,0.3L121,110.8z"/>
	<path class="st0" d="M173.6,110.8c-0.1,0-0.1-0.1-0.1-0.2l0-1.5c0,0,0-0.1,0-0.1c0,0,0.1,0,0.2,0l2.7-0.1c0.2,0,0.3,0,0.3,0.2
		l0.5,1.4c0.1,0.2,0,0.3-0.2,0.3L173.6,110.8z"/>
</g>
</svg>
