<?xml version="1.0" encoding="utf-8"?>
<!-- Generator: Adobe Illustrator 22.1.0, SVG Export Plug-In . SVG Version: 6.00 Build 0)  -->
<svg version="1.1" id="Capa_1" xmlns="http://www.w3.org/2000/svg" xmlns:xlink="http://www.w3.org/1999/xlink" x="0px" y="0px"  height="auto" width="100px"
	 viewBox="0 0 183.3 193.9" style="enable-background:new 0 0 183.3 193.9;" xml:space="preserve">
<style type="text/css">
	.st0{fill:#DDA3A6;}
	.st1{fill:#9A83B4;}
</style>
<g>
	<g>
		<g>
			<path class="st0" d="M99.3,130.7H73.9c-4.7,0-8.5-3.8-8.5-8.5V90.8c0-1.4,1.1-2.5,2.5-2.5h13.9c-0.9-1.3-1.8-2.8-2.7-4.8
				c-8.1-2.7-12.7-5.7-13.7-8.9c-0.6-1.9,0.3-3.1,0.4-3.2c0.2-0.2,0.4-0.3,0.7-0.4c3.4-0.4,6.7,0.7,9.1,2.5c-0.7-1.9-1.3-4-1.5-6.2
				c-7.1-8.3-10.3-14.7-9.4-18.9c0.4-2.2,1.8-2.9,2-3c0.3-0.1,0.6-0.1,0.9,0c1.6,0.8,3.1,1.9,4.4,3.3c-2.7-7.9-3.1-13.6-1.2-16.8
				c1.2-2,2.8-2.3,3-2.3c0.3,0,0.6,0.1,0.8,0.3c7.4,7.2,4.2,18.9,2.4,23.7c-0.1,1.8-0.3,3.5-0.5,5.1c-0.1,1-0.2,2-0.3,3
				c1.4-2.1,3.6-4,6.7-5.1c0.2-0.1,0.5-0.1,0.7,0c0.7,0.3,2,1.4,2.3,3.2c0.6,3.4-2.1,8-7.9,13.6c0.2,1,0.4,2,0.7,2.9
				c0,0.1,0.1,0.2,0.1,0.3c0.6,2.1,1.3,4,2,5.5c1,2.1,2.4,4.4,3.6,5.9h1.6c1-1.4,1.9-2.9,2.8-4.4c-5-9.3-4.6-11.8-3.9-12.8
				c0.5-0.6,1.2-0.8,1.6-0.7c2,0.3,3.5,1.3,4.5,2.8c0.9,1.4,1.2,3.1,1.3,4.8c0.9-1.7,1.7-3.4,2.4-4.9c-6.6-12.4-9-19.7-7.1-22.3
				c0.6-0.9,1.6-1,2.1-0.9c3.4,0.5,5.9,2,7.6,4.5c1.6,2.3,2.2,5.2,2.3,7.9c1.5-5,2.7-10.3,3-14.6C94.8,39.4,91.3,34.2,92,31.6
				c0.2-0.8,0.8-1.2,1.2-1.3c1.9-0.5,3.7-0.4,5.3,0.4c-6.3-9.1-9-15.1-8.2-17.9c0.3-1,0.9-1.2,1.1-1.3c2.2-0.8,4.2-0.6,5.9,0.5
				c5.6,3.6,6.9,16.1,7.3,21.3l0.1,0.7c0.3,1.7,0.5,3.1,0.4,4.5c-0.1,1.2-0.1,2.4-0.1,3.6c0,0.2,0,0.5,0,0.7
				c2.7-3.7,7.2-6.5,13.3-5.1c0.4,0.1,1.2,0.5,1.5,1.5c0.3,1.1,1.1,4.4-15.7,17.9c-0.5,1.8-1.1,3.6-1.9,5.4
				c4.1-3.6,9.2-5.3,14.5-1.9c0.4,0.3,0.8,0.9,0.7,1.6c-0.2,1.6-2.4,4.2-18.8,9.2c-0.8,1.8-1.8,3.5-2.7,5.1c4.5-2.9,10-3.9,14.5,0.3
				c0.3,0.3,0.7,1,0.4,1.7c-0.5,1.5-2.9,3.8-18.8,6c-0.8,1.2-1.8,2.2-2.7,3.2c-0.2,0.2-0.4,0.4-0.5,0.6h16.7c1.4,0,2.5,1.1,2.5,2.5
				v11.3h1.1c0.1,0,0.2-0.1,0.3-0.2l2.7-5.1c0.3-0.5,0.7-0.8,1.3-0.8h6.5c0.5,0,0.9,0.2,1.2,0.6c0.3,0.4,0.3,0.9,0.1,1.4
				c-4,9.8-9.4,21.5-12.8,22.1c0,0,0,0,0,0c-0.1,0-0.2,0-0.3,0.1v2C107.8,126.9,104,130.7,99.3,130.7z M67.9,90.3
				c-0.3,0-0.5,0.2-0.5,0.5v31.4c0,3.6,2.9,6.5,6.5,6.5h25.3c3.6,0,6.5-2.9,6.5-6.5v-3c0-0.3,0.1-0.6,0.4-0.8
				c0.2-0.2,0.5-0.3,0.8-0.2c0.2,0,0.4,0,0.7-0.1c0.1,0,0.2,0,0.2,0c1.6-0.5,5.7-7.5,10.9-20.1h-5.3l-2.5,4.8
				c-0.4,0.8-1.2,1.3-2,1.3h-2.1c-0.6,0-1-0.4-1-1V90.8c0-0.3-0.2-0.5-0.5-0.5H67.9z M119.6,98L119.6,98L119.6,98z M92.8,81.5
				c-0.2,0.3-0.3,0.6-0.5,0.9c13.5-2,15.9-3.9,16.4-4.4C102.3,72.4,94.1,80.2,92.8,81.5z M86.5,72.5c-0.1,0.5,0,2.7,3.5,9.4
				c0.4-2.1,0.8-5.4-0.6-7.5C88.7,73.4,87.8,72.8,86.5,72.5z M67.3,73c-0.1,0.3-0.1,0.6,0.1,1.1c0.5,1.3,2.5,3.9,10.7,6.9
				c-0.4-1.1-0.8-2.2-1.2-3.5C75.1,75.1,71.4,72.7,67.3,73z M86.2,72.5C86.2,72.5,86.2,72.5,86.2,72.5
				C86.2,72.5,86.2,72.5,86.2,72.5z M76,67.5c0.2,1.5,0.6,2.9,1,4.3c6.5-6.4,7.1-9.9,6.8-11.4c-0.1-0.8-0.6-1.3-0.9-1.6
				C78.5,60.6,76.4,64.5,76,67.5z M89.4,51.9c0,0-0.1,0.1-0.2,0.2c-0.4,0.7-1.2,4.3,6.9,19.5c0.2-0.4,0.4-0.9,0.6-1.3
				c0-0.1,0-0.1,0-0.2c0.7-2.9,1.9-10.1-1.1-14.6C94.3,53.6,92.2,52.3,89.4,51.9z M99.6,68.5c-0.1,0.2-0.1,0.4-0.2,0.6
				c13.1-4.1,15.4-6.2,15.8-6.9C107.9,57.7,101.5,65.7,99.6,68.5z M67.2,47.6c-0.2,0.3-0.5,0.7-0.6,1.4c-0.3,1.9,0.3,6.3,7.4,15.2
				c0.1-1.8,0.3-3.7,0.5-5.6c0-0.4,0.1-0.8,0.1-1.2C73.7,54.2,71.3,49.9,67.2,47.6z M104.7,47.6c-0.2,2.3-0.6,4.8-1.1,7.4
				c12.5-10.2,14.1-13.8,14.2-15c0-0.2,0-0.3,0-0.3C110.8,38.2,106.5,42.7,104.7,47.6z M73.5,31.9c-0.3,0.2-0.8,0.5-1.2,1.3
				c-1,1.9-1.9,6.8,2.9,19.1C76.9,47.5,79.2,37.9,73.5,31.9z M93.9,32.2c-0.1,0.5,0,3.2,8.9,12.8c0-0.5,0-1.1,0.1-1.6
				c-0.5-3.2-1.9-8.7-5-10.7C96.7,32,95.4,31.8,93.9,32.2z M92.2,13.4c-0.2,0.4-1.1,4,10.3,19.6c-0.6-7.8-2.5-16.8-6.3-19.3
				C95.1,13,93.7,12.9,92.2,13.4z M93.7,32.2C93.7,32.2,93.7,32.2,93.7,32.2C93.7,32.2,93.7,32.2,93.7,32.2z M92.1,13.4
				C92.1,13.4,92.1,13.4,92.1,13.4C92.1,13.4,92.1,13.4,92.1,13.4z"/>
		</g>
	</g>
	<g>
		<path class="st1" d="M84.5,109.3c-6.9-3-12.8-1-14.4-0.3c-0.3,0.1-0.4,0.4-0.4,0.6v10.9c0,2.9,2.3,5.2,5.2,5.2h23.2
			c2.9,0,5.2-2.3,5.2-5.2v-12.1c0-0.5-0.5-0.8-1-0.6C99.4,109,91.2,112.1,84.5,109.3z"/>
	</g>
	<g>
		<path class="st1" d="M39.5,130.3c1.4,0,2.6,0.3,3.8,0.8c1.2,0.5,2.2,1.2,3.1,2.1c0.9,0.9,1.6,1.9,2.1,3.1c0.5,1.2,0.8,2.4,0.8,3.7
			v12.6c0,1.5-0.3,2.9-0.9,4.2c-0.6,1.3-1.4,2.5-2.4,3.4s-2.2,1.7-3.5,2.3c-1.3,0.6-2.8,0.9-4.3,0.9h-5.8c-0.2,0-0.3-0.1-0.2-0.3
			l0.6-1.4v-29.7l-0.6-1.4c-0.1-0.2,0-0.3,0.2-0.3L39.5,130.3z M46.4,139.9c0-0.9-0.2-1.8-0.6-2.6c-0.4-0.8-0.9-1.5-1.5-2.2
			c-0.6-0.6-1.3-1.1-2.2-1.5c-0.8-0.4-1.7-0.5-2.7-0.5h-0.1c-1,0.1-1.9,0.5-2.6,1.3c-0.7,0.8-1.1,1.9-1.1,3.4c0,0.7,0.1,1.3,0.3,1.7
			c0.2,0.4,0.5,0.7,0.8,0.9s0.6,0.4,1,0.4s0.6,0.1,0.8,0.1c0.8,0,1.3-0.2,1.6-0.6s0.4-0.8,0.3-1.2c-0.1-0.3-0.2-0.5-0.3-0.6
			c-0.2-0.1-0.3-0.2-0.5-0.2s-0.3,0-0.5,0.1s-0.2,0.2-0.3,0.3c-0.4,0-0.7-0.2-0.9-0.6c-0.2-0.4-0.2-0.8-0.1-1.2
			c0.1-0.4,0.3-0.8,0.7-1.1c0.4-0.3,0.9-0.5,1.6-0.4h0.3c0.8,0.1,1.5,0.5,1.9,1.1c0.5,0.6,0.8,1.3,0.9,2.2s0.1,1.6-0.1,2.2
			c-0.2,0.6-0.5,1-0.8,1.4c-0.4,0.5-1,0.9-1.7,1.2c-0.7,0.3-1.4,0.4-2.2,0.4c-1,0-2-0.2-2.9-0.7v17.3h2.5c1.1,0,2.2-0.2,3.2-0.6
			c1-0.4,1.8-1,2.6-1.7s1.3-1.6,1.7-2.5c0.4-1,0.6-2,0.6-3.1V139.9z"/>
		<path class="st1" d="M64.1,160.4h-3.3l0,0l0.1-1.3l-2.9-8.9l-2.7,0v9l0.5,1.3l0,0h-3.3c0,0,0,0,0,0l0.5-1.3v-16.3l-0.5-1.3l0,0
			h6.7c0.1,0,0.2,0,0.4,0c0.2,0,0.5,0.1,0.8,0.1c0.3,0.1,0.6,0.2,1,0.4c0.3,0.2,0.6,0.4,1,0.7c0.3,0.3,0.5,0.6,0.8,1.1
			c0.3,0.5,0.4,1.2,0.4,2c0,0.7-0.1,1.2-0.3,1.7c-0.2,0.5-0.4,0.9-0.7,1.3s-0.6,0.6-1,0.8c-0.4,0.2-0.8,0.4-1.1,0.5l3,9.1
			L64.1,160.4L64.1,160.4z M55.2,147.8l4.1,0c0.1,0,0.2,0,0.5-0.1s0.4-0.1,0.6-0.3c0.2-0.1,0.4-0.3,0.5-0.6c0.2-0.3,0.2-0.6,0.2-1.1
			c0-0.6-0.2-1.1-0.5-1.4c-0.1-0.1-0.3-0.2-0.5-0.3c-0.2-0.1-0.3-0.1-0.5-0.2c-0.2,0-0.3-0.1-0.5-0.1h0h-4V147.8z"/>
		<path class="st1" d="M69.9,160.4h-3.2c0,0,0,0,0,0l0.5-1.3v-16.3l-0.5-1.3v0h3.3v0l-0.5,1.3v16.3L69.9,160.4L69.9,160.4z"/>
		<path class="st1" d="M84.1,160.4C84.1,160.4,84.1,160.4,84.1,160.4l-3.3,0v0l0.5-1.3v-8.8l-6-5.5v14.3l0.5,1.3l0,0h-3.3
			c0,0,0,0,0,0l0.5-1.3v-16.2l-0.5-1.3l0,0h2.6l6.2,5.6v-4.2l-0.5-1.3c0,0,0,0,0,0h3.3l0,0l-0.5,1.3v16.2L84.1,160.4z"/>
		<path class="st1" d="M97.7,160.3c0,0.1,0,0.1-0.1,0.1h-3c0,0-0.1,0-0.1-0.1l0.1-1.3l-3.4-10.7l-1.9,1.9v8.8l0.5,1.2
			c0,0.1,0,0.1-0.1,0.1h-3.2c0,0-0.1,0-0.1-0.1l0.5-1.2v-16.2l-0.5-1.2c0-0.1,0-0.1,0.1-0.1h3.2c0,0,0.1,0,0.1,0.1l-0.5,1.2v4.1
			l4.5-4.7l0.2-0.6c0,0,0-0.1,0-0.1h3.7c0.1,0,0.1,0,0,0.1l-1,0.8l-3.8,4l4,12.6L97.7,160.3z"/>
		<path class="st1" d="M137.2,163.3h-4c-0.1,0-0.1,0-0.1-0.1l0.6-1.5v-23.9l-6.2,13.8c-0.1,0.1-0.2,0.1-0.2,0l-6.6-14.5v21.6
			c0,0.1,0,0.4,0,0.8c0,0.4-0.1,0.9-0.2,1.5c-0.1,0.6-0.3,1.2-0.6,1.9c-0.3,0.7-0.7,1.3-1.2,1.8c-1.4,1.5-3.3,2.2-5.7,2.2
			c-1.5,0-2.8-0.4-3.9-1.1c-1.2-0.7-2.1-1.8-2.7-3.1c-0.7-1.5-0.9-3-0.8-4.6c0.1-1.6,0.7-3,1.7-4.2c0.8-1,1.8-1.7,2.9-2.1
			c1.1-0.4,2.2-0.4,3.3,0c1,0.4,1.8,1,2.4,1.9c0.6,0.9,0.9,1.9,0.9,3c0,1-0.3,1.9-0.8,2.4c-0.3,0.3-0.6,0.5-1,0.6
			c-0.4,0.1-0.8,0.2-1.1,0.1s-0.7-0.2-0.9-0.5s-0.4-0.6-0.4-1.1h0c0.3,0,0.6-0.1,0.9-0.3c0.3-0.2,0.4-0.6,0.4-1.2
			c0-0.5-0.1-0.9-0.4-1.3c-0.3-0.4-0.6-0.6-1-0.8c-1-0.3-2,0-3,1.1c-0.6,0.7-0.9,1.6-1,2.7c-0.1,1.1,0.1,2.1,0.5,3
			c0.1,0.2,0.3,0.5,0.5,0.8c0.2,0.3,0.5,0.6,0.8,0.9c0.3,0.3,0.7,0.5,1.2,0.7c0.4,0.2,1,0.3,1.6,0.3c1.6,0,2.8-0.4,3.6-1.3
			c0.3-0.4,0.6-0.8,0.8-1.2c0.2-0.4,0.3-0.9,0.4-1.3c0.1-0.5,0.1-0.9,0.1-1.4v-0.1v-26.3l-0.6-1.6c0-0.1,0-0.1,0.1-0.1h3.7l6.3,14
			l6.3-14h3.5c0.1,0,0.1,0,0,0.1l-0.6,1.6v29.3l0.6,1.5C137.3,163.2,137.3,163.3,137.2,163.3z"/>
		<path class="st1" d="M150,160.3l-0.1,0.3c0,0.1,0,0.1-0.1,0l-0.6-0.2h-8.9c0,0-0.1,0-0.1-0.1l0.5-1.2v-16.3l-0.5-1.2
			c0-0.1,0-0.1,0.1-0.1h7.5l0.5-0.2c0,0,0,0,0.1,0l1,2.6c0,0,0,0.1-0.1,0.1l-1.1-0.2h-5.1v4.1h4.2l1.1-0.2c0,0,0.1,0,0.1,0.1
			l-0.1,0.2l-0.7,2.1l-0.1,0.3c0,0-0.1,0-0.1,0l-0.5-0.2h-3.8v7.8h6.6l1-0.2c0,0,0.1,0,0.1,0.1L150,160.3z"/>
	</g>
	<g>
		<path class="st0" d="M52,183.2L52,183.2l-1.9,0c0,0,0,0,0,0l0.3-0.7v-9h-2.3l-0.7,0.1c0,0,0,0,0,0L48,172c0,0,0,0,0,0l0.3,0.1h5.5
			l0.3-0.1c0,0,0,0,0,0l0.6,1.6l0,0l-0.7-0.1h-2.3v9L52,183.2z"/>
		<path class="st0" d="M62,183.1l-0.1,0.2c0,0,0,0,0,0l-0.4-0.1h-5.2c0,0,0,0,0-0.1l0.3-0.7v-9.6l-0.3-0.7c0,0,0-0.1,0-0.1h4.4
			L61,172c0,0,0,0,0,0l0.6,1.5c0,0,0,0,0,0l-0.7-0.1h-3v2.4h2.5l0.6-0.1c0,0,0,0,0,0l-0.1,0.1l-0.4,1.2l0,0.2c0,0,0,0-0.1,0
			l-0.3-0.1h-2.2v4.6h3.9l0.6-0.1c0,0,0,0,0,0.1L62,183.1z"/>
		<path class="st0" d="M72.7,183.1l-0.1,0.2c0,0,0,0,0,0l-0.4-0.1H67c0,0,0,0,0-0.1l0.3-0.7v-9.6l-0.3-0.7c0,0,0-0.1,0-0.1h4.4
			l0.3-0.1c0,0,0,0,0,0l0.6,1.5c0,0,0,0,0,0l-0.7-0.1h-3v2.4h2.5l0.6-0.1c0,0,0,0,0,0l-0.1,0.1l-0.4,1.2l0,0.2c0,0,0,0-0.1,0
			l-0.3-0.1h-2.2v4.6h3.9l0.6-0.1c0,0,0,0,0,0.1L72.7,183.1z"/>
		<path class="st0" d="M78.8,181.4l1,1.2c0,0,0,0,0,0l-0.3,0.1c-0.6,0.4-1.2,0.6-1.9,0.6c-0.4,0-0.8-0.1-1.2-0.2
			c-0.4-0.2-0.7-0.4-1-0.7c-0.3-0.3-0.5-0.6-0.7-1c-0.2-0.4-0.2-0.8-0.2-1.2v-5.4c0-0.4,0.1-0.8,0.2-1.2s0.4-0.7,0.6-1
			c0.3-0.3,0.6-0.5,1-0.7s0.8-0.2,1.2-0.2c0.7,0,1.4,0.2,2,0.7l0.3,0.1c0,0,0,0,0,0l-1,1.2c0,0,0,0,0,0l-0.1-0.2
			c-0.3-0.3-0.7-0.4-1.1-0.4c-0.5,0-0.8,0.2-1.2,0.5s-0.5,0.7-0.5,1.2v5.4c0,0.5,0.2,0.9,0.5,1.2s0.7,0.5,1.2,0.5
			c0.4,0,0.7-0.1,1-0.4L78.8,181.4L78.8,181.4z"/>
		<path class="st0" d="M83.8,183.4c-0.4,0-0.8-0.1-1.2-0.2c-0.4-0.2-0.7-0.4-1-0.6c-0.3-0.3-0.5-0.6-0.6-1c-0.2-0.4-0.2-0.8-0.2-1.2
			v-5.5c0-0.4,0.1-0.8,0.2-1.2c0.2-0.4,0.4-0.7,0.6-1c0.3-0.3,0.6-0.5,1-0.6s0.8-0.2,1.2-0.2c0.4,0,0.9,0.1,1.2,0.2
			c0.4,0.2,0.7,0.4,1,0.7c0.3,0.3,0.5,0.6,0.7,1c0.2,0.4,0.2,0.8,0.2,1.2v5.2c0,0.4-0.1,0.9-0.2,1.2c-0.2,0.4-0.4,0.7-0.7,1
			c-0.3,0.3-0.6,0.5-1,0.7C84.7,183.3,84.2,183.4,83.8,183.4z M83.8,173.2c-0.4,0-0.8,0.2-1.2,0.5c-0.3,0.3-0.5,0.7-0.5,1.2v5.5
			c0,0.4,0.2,0.8,0.5,1.2c0.3,0.3,0.7,0.5,1.2,0.5c0.5,0,0.9-0.2,1.3-0.5c0.4-0.4,0.5-0.8,0.5-1.3V175c0-0.5-0.2-0.9-0.5-1.3
			C84.7,173.4,84.3,173.2,83.8,173.2z"/>
		<path class="st0" d="M94.4,181.7l-0.5,1.6h0l-0.4-0.1h-5c0,0,0,0,0,0l0.3-0.7v-9.6l-0.3-0.7c0,0,0,0,0,0h1.9l0,0l-0.3,0.7v9h3.6
			L94.4,181.7C94.4,181.7,94.4,181.7,94.4,181.7z"/>
		<path class="st0" d="M98.4,183.4c-0.4,0-0.8-0.1-1.2-0.2c-0.4-0.2-0.7-0.4-1-0.6c-0.3-0.3-0.5-0.6-0.6-1c-0.2-0.4-0.2-0.8-0.2-1.2
			v-5.5c0-0.4,0.1-0.8,0.2-1.2c0.2-0.4,0.4-0.7,0.6-1c0.3-0.3,0.6-0.5,1-0.6s0.8-0.2,1.2-0.2c0.4,0,0.9,0.1,1.2,0.2
			c0.4,0.2,0.7,0.4,1,0.7c0.3,0.3,0.5,0.6,0.7,1c0.2,0.4,0.2,0.8,0.2,1.2v5.2c0,0.4-0.1,0.9-0.2,1.2c-0.2,0.4-0.4,0.7-0.7,1
			c-0.3,0.3-0.6,0.5-1,0.7C99.3,183.3,98.8,183.4,98.4,183.4z M98.4,173.2c-0.4,0-0.8,0.2-1.2,0.5c-0.3,0.3-0.5,0.7-0.5,1.2v5.5
			c0,0.4,0.2,0.8,0.5,1.2c0.3,0.3,0.7,0.5,1.2,0.5c0.5,0,0.9-0.2,1.3-0.5c0.4-0.4,0.5-0.8,0.5-1.3V175c0-0.5-0.2-0.9-0.5-1.3
			C99.3,173.4,98.9,173.2,98.4,173.2z"/>
		<path class="st0" d="M109.6,175.7l-0.2,0.6v3.9c0,0.4-0.1,0.9-0.3,1.2c-0.2,0.4-0.4,0.7-0.7,1c-0.3,0.3-0.6,0.5-1,0.7
			c-0.4,0.2-0.8,0.2-1.2,0.2c-0.4,0-0.8-0.1-1.2-0.3c-0.4-0.2-0.7-0.4-1-0.7c-0.3-0.3-0.5-0.6-0.7-1c-0.2-0.4-0.2-0.8-0.2-1.2V175
			c0-0.4,0.1-0.8,0.2-1.2c0.2-0.4,0.4-0.7,0.7-1c0.3-0.3,0.6-0.5,1-0.7c0.4-0.2,0.8-0.2,1.2-0.2c0.9,0,1.8,0.4,2.5,1.2l0.3,0.1
			c0,0,0,0,0,0l-1.2,1.1l0,0l-0.1-0.3c-0.5-0.5-1-0.8-1.5-0.8c-0.2,0-0.5,0-0.7,0.1c-0.2,0.1-0.4,0.2-0.6,0.4s-0.3,0.4-0.4,0.6
			c-0.1,0.2-0.1,0.5-0.1,0.7v5.3c0,0.5,0.2,0.9,0.5,1.3c0.4,0.3,0.8,0.5,1.3,0.5c0.2,0,0.5-0.1,0.7-0.2c0.2-0.1,0.4-0.2,0.5-0.4
			c0.2-0.2,0.3-0.4,0.4-0.6c0.1-0.2,0.1-0.4,0.1-0.7V177h-2l-0.4,0.2c0,0,0,0,0,0v-1.7c0,0,0,0,0,0l0.4,0.2L109.6,175.7L109.6,175.7
			z"/>
		<path class="st0" d="M113,183.2h-1.9c0,0,0,0,0,0l0.3-0.7v-9.6l-0.3-0.7v0h2v0l-0.3,0.7v9.6L113,183.2L113,183.2z"/>
		<path class="st0" d="M118.7,181.4l1,1.2c0,0,0,0,0,0l-0.3,0.1c-0.6,0.4-1.2,0.6-1.9,0.6c-0.4,0-0.8-0.1-1.2-0.2
			c-0.4-0.2-0.7-0.4-1-0.7c-0.3-0.3-0.5-0.6-0.7-1c-0.2-0.4-0.2-0.8-0.2-1.2v-5.4c0-0.4,0.1-0.8,0.2-1.2s0.4-0.7,0.6-1
			c0.3-0.3,0.6-0.5,1-0.7s0.8-0.2,1.2-0.2c0.7,0,1.4,0.2,2,0.7l0.3,0.1c0,0,0,0,0,0l-1,1.2c0,0,0,0,0,0l-0.1-0.2
			c-0.3-0.3-0.7-0.4-1.1-0.4c-0.5,0-0.8,0.2-1.2,0.5s-0.5,0.7-0.5,1.2v5.4c0,0.5,0.2,0.9,0.5,1.2s0.7,0.5,1.2,0.5
			c0.4,0,0.7-0.1,1-0.4L118.7,181.4L118.7,181.4z"/>
		<path class="st0" d="M123.7,183.4c-0.4,0-0.8-0.1-1.2-0.2c-0.4-0.2-0.7-0.4-1-0.6c-0.3-0.3-0.5-0.6-0.6-1
			c-0.2-0.4-0.2-0.8-0.2-1.2v-5.5c0-0.4,0.1-0.8,0.2-1.2c0.2-0.4,0.4-0.7,0.6-1c0.3-0.3,0.6-0.5,1-0.6s0.8-0.2,1.2-0.2
			c0.4,0,0.9,0.1,1.2,0.2c0.4,0.2,0.7,0.4,1,0.7c0.3,0.3,0.5,0.6,0.7,1c0.2,0.4,0.2,0.8,0.2,1.2v5.2c0,0.4-0.1,0.9-0.2,1.2
			c-0.2,0.4-0.4,0.7-0.7,1c-0.3,0.3-0.6,0.5-1,0.7C124.6,183.3,124.2,183.4,123.7,183.4z M123.7,173.2c-0.4,0-0.8,0.2-1.2,0.5
			c-0.3,0.3-0.5,0.7-0.5,1.2v5.5c0,0.4,0.2,0.8,0.5,1.2c0.3,0.3,0.7,0.5,1.2,0.5c0.5,0,0.9-0.2,1.3-0.5c0.4-0.4,0.5-0.8,0.5-1.3V175
			c0-0.5-0.2-0.9-0.5-1.3C124.7,173.4,124.2,173.2,123.7,173.2z"/>
	</g>
	<path class="st0" d="M57.4,170.8c-0.1,0-0.1,0-0.1-0.1l0-1.2c0,0,0-0.1,0-0.1c0,0,0,0,0.1,0l2.1,0c0.1,0,0.2,0,0.2,0.1l0.3,1.1
		c0,0.1,0,0.2-0.2,0.2L57.4,170.8z"/>
	<path class="st0" d="M97.2,170.8c-0.1,0-0.1,0-0.1-0.1l0-1.2c0,0,0-0.1,0-0.1c0,0,0,0,0.1,0l2.1,0c0.1,0,0.2,0,0.2,0.1l0.3,1.1
		c0,0.1,0,0.2-0.2,0.2L97.2,170.8z"/>
</g>
</svg>
