<svg xmlns="http://www.w3.org/2000/svg" width="100" height="100" viewBox="0 0 1403.78 1788.43"><title>logo web</title><path d="M775.61,1321.58H490.9c-52.81,0-106.6-40.56-106.6-90.41v-328c0-14.63,12.6-26.53,28.09-26.53H579.05c-9.94-13.34-20.46-34.71-30.47-55.21-91.05-28.59-151.49-59.22-162.41-93.16-6.38-19.8,3.58-32.58,4.73-34a11.44,11.44,0,0,1,7.44-4c38.6-4.6,83.57,6.69,110.83,25-7.34-20-14.72-42-17.36-65.4C412,561.34,376.41,494,386.12,449.61c5-23,20.65-30.79,22.41-31.61a11.84,11.84,0,0,1,9.85,0,177.33,177.33,0,0,1,49.9,35c-30.08-84.27-34.74-144.2-13.79-178.52,13-21.33,31.2-24.27,33.23-24.53a11.57,11.57,0,0,1,9.37,2.9c83.07,76.2,47.12,200.3,27,251.74-1.32,18.88-3.33,36.84-5.28,54.22-1.22,10.9-2.41,21.59-3.37,32,15.91-22.37,40.38-42.58,75.37-53.63a11.92,11.92,0,0,1,8.18.38c7.91,3.37,22.24,14.39,25.87,34.36,6.54,36.07-23.21,84.66-88.45,144.45q3.54,16.11,7.7,30.54c.36,1.2.71,2.4,1,3.59a401.47,401.47,0,0,0,22.25,58.77c11,22.62,27.35,51.56,40,67.38h18.08c10.9-15.18,21.59-35.42,31.85-51C601.13,726.83,605.49,701,613.79,690.11a19.54,19.54,0,0,1,18.43-7.4c22.64,3.65,39.84,13.8,51,30.15,10.11,14.84,13.86,33,14.25,51,9.56-17.88,19.16-36.45,27.33-52.27C650.12,580,624,502.52,644.89,474.69a25.52,25.52,0,0,1,23.35-10.06c37.69,5.25,66.51,21.32,85.51,47.74,17.71,24.62,24.46,55,25.76,83.93,17.26-53.49,29.81-109.6,34.14-155.35-88.83-87.66-128.11-143.58-120.07-170.9,2.43-8.24,8.52-12.51,13.41-13.75,21.72-5.83,41.76-4.36,59.54,4.41C695.79,164.35,662.39,99,672,69.54c3.33-10.2,10.38-13.22,12.46-13.92,24.41-8.48,46.94-6.66,66.79,5.55,62.7,38.58,80.39,173,84,228.23l1.17,7c3,18.42,5.35,33,4.46,48-.76,12.85-1.18,25.45-1.61,38.07-.08,2.44-.17,4.9-.25,7.36,30.21-39.36,94.34-71.35,163.75-56.84a22.18,22.18,0,0,1,16.61,16.11c3,11.59-2.11,49.55-190.53,192.62-5.41,19.35-12.85,38.43-21,57.21,45.87-38,103.88-56,162.47-20.39a17.06,17.06,0,0,1,8,16.93c-2.26,16.47-26.77,44.42-211.78,97.35C757.12,712,746.66,730,736,747.29c51-30.42,112.35-41.4,162.71,2.68a17.25,17.25,0,0,1,4.85,18.55c-5.2,15.93-32.86,39.81-211.39,63.63-8.78,12.36-20.32,28.43-30.62,38.58l-6,5.91H843.27c15.49,0,28.09,11.9,28.09,26.53v114.66h12.28a3.71,3.71,0,0,0,3.05-2.1l30.13-54.23A16.14,16.14,0,0,1,931,953.28h73.15A16.26,16.26,0,0,1,1017.4,960a15.25,15.25,0,0,1,1.62,15c-44.45,103.46-105.53,228-144,234.06a2.38,2.38,0,0,1-.37.06c-1.09.29-2.17.52-3.24.73v21.32C871.36,1281,828.41,1321.58,775.61,1321.58ZM412.39,897.87a5.47,5.47,0,0,0-5.61,5.3v328c0,38.15,43.71,69.19,84.12,69.19H775.61c40.4,0,73.28-31,73.28-69.19v-31.51a10.38,10.38,0,0,1,4-8.1,11.5,11.5,0,0,1,9.1-2.37,17,17,0,0,0,7.74-.83,11.54,11.54,0,0,1,2.72-.5c17.62-5.53,64.46-79.41,122.55-213.35H935l-28.37,51.07a26.27,26.27,0,0,1-23,13.47H860.12c-6.2,0-11.23-4.74-11.23-10.61V903.17a5.47,5.47,0,0,0-5.62-5.3Zm591.76,76.64h0ZM703.06,799.94c-1.94,3.47-3.86,6.84-5.73,10.07,152.24-20.91,179.25-41.11,183.85-46.43C809.28,703.45,717.91,785.69,703.06,799.94ZM631.5,704.2c-1.07,5.75-.45,28.14,39.18,99.94,4.84-22.6,8.72-57.63-6.38-79.8C657.11,713.79,646.36,707.18,631.5,704.2Zm-224.36,6.62a20,20,0,0,0,.8,12.07c5.06,14.24,36.43,40.8,129,72.29C532.39,783.74,528,771.36,524,758,503.62,731.83,453.42,707.65,407.14,710.82Zm221.19-7.2.12,0ZM514.54,650.75c2.09,15.63,6.55,31,11.53,45.46,73-68.33,79.52-104.79,76.62-120.72A26.49,26.49,0,0,0,593,559C541.67,577.26,518.72,619.16,514.54,650.75ZM664.83,485.61a3.92,3.92,0,0,0-1.91,1.8c-4.91,7.69-13.4,45.13,77.77,207.26q3.63-6.9,7.07-14a9.91,9.91,0,0,1,.28-1.76c7.61-30.52,21.59-106.69-12.88-154.62C719.83,503,696.17,490,664.83,485.61ZM779.52,661.7q-1.2,2.94-2.41,5.84c146.7-43.08,173.21-66.25,178-73C872,546.9,800.72,632.28,779.52,661.7ZM414.81,440.13c-2.45,2.71-5.5,7.4-6.92,15-3.76,20,2.9,66.66,83.3,160.85.74-18.93,3-38.81,5.26-59.38q.71-6.24,1.39-12.56C488.29,510.16,461.22,464.24,414.81,440.13Zm421.54-.78c-2.08,24-6.43,50.95-12.56,78.94C964.27,410.58,996.45,368.54,997.64,356.52c.2-2-.17-2.86-.28-3C919.27,337.25,856.28,388.28,836.35,439.35Zm-350-166.6c-3.55,1.92-8.61,5.78-13,13.38-11.33,19.74-21.59,72.08,32.82,202.75C524.46,438.67,549.78,337,486.3,272.75Zm228.83,3.46c-.89,4.81-.25,33.92,100.52,135.84.28-5.76.51-11.47.72-17.14-6-33.74-21.2-92.25-56.16-113.17C747.05,273.87,732.29,272.05,715.13,276.21ZM693.78,75c-2.17,4.63-9.45,43.79,118.71,210.06C806.2,202,782.09,105.47,739,79,725.65,70.75,710.85,69.46,693.78,75ZM713.21,276.7l-.22.06ZM692.33,75.51l-.27.09Z" fill="#d8a1af"/><path d="M607.75,1094.17c-77.82-31.61-148.43-10.36-166.37-3.38a7.3,7.3,0,0,0-4.76,6.82v116.11c0,30.25,30.16,54.76,62.19,54.76H759.9c32,0,58-24.51,58-54.76V1085.79c0-5.34-5.76-8.92-10.95-6.79C775.51,1091.89,682.44,1124.5,607.75,1094.17Z" fill="#9b7dae"/><path d="M143.34,1321.8a106.38,106.38,0,0,1,41.08,8,103.34,103.34,0,0,1,33.47,22,106.87,106.87,0,0,1,22.57,32.6,96,96,0,0,1,8.31,39.64v173c0,15.64-3.09,62.46-9.27,76.37a113.41,113.41,0,0,1-25.4,36.36,124,124,0,0,1-37.76,24.64,117.74,117.74,0,0,1-46.31,9.14H67.81q-3.32,0-2.37-3.29l6.18-14.54V1339.63l-6.18-14.54q-.94-2.82,2.37-2.82Zm74.08,102.48a66,66,0,0,0-5.94-27.59,75.94,75.94,0,0,0-15.9-22.92,73.07,73.07,0,0,0-23.51-15.43,74.17,74.17,0,0,0-28.73-5.62h-1.43q-16.17.93-27.55,13.28T103,1402.1q0,11.18,3.56,17.7a28.61,28.61,0,0,0,8.55,10,25.63,25.63,0,0,0,10.45,4.43,55,55,0,0,0,8.78.93q12.36,0,17.34-6.32t3.09-12.89a9.89,9.89,0,0,0-3.56-6.09,9.31,9.31,0,0,0-5.46-1.87,10.08,10.08,0,0,0-5.23,1.41,5.55,5.55,0,0,0-2.85,3.28,10.69,10.69,0,0,1-9.5-6.33A17.65,17.65,0,0,1,127,1394a22.35,22.35,0,0,1,7.84-11.72q6.17-5.14,17.57-4.68h2.84q13.31,1.88,20.9,11.24a49.14,49.14,0,0,1,10,23q2.38,13.59-1.42,22.79T176.1,1449a48.17,48.17,0,0,1-18,12.61,61.6,61.6,0,0,1-23.75,4.51,67.22,67.22,0,0,1-31.34-7.61v254.18H130a88.25,88.25,0,0,0,34-6.55,87.31,87.31,0,0,0,27.78-18,86.37,86.37,0,0,0,18.77-26.66,78,78,0,0,0,6.88-32.51Z" fill="#9b7dae"/><path d="M406.59,1639.55H370.94l-.38-.39.76-14.22L339.86,1525l-29.56-.4v100.3l5.73,14.22-.38.39H280.12c-.26,0-.38-.13-.38-.39l5.34-14.22V1442.51l-5.34-14.21.38-.4h73c.76,0,2.35.07,4.78.19a50.67,50.67,0,0,1,8.6,1.39,46.05,46.05,0,0,1,10.31,4,44.62,44.62,0,0,1,10.32,7.5,56.36,56.36,0,0,1,8.6,12.64q4.38,8.28,4.39,22.11a54.1,54.1,0,0,1-3.06,19.15,50.5,50.5,0,0,1-7.83,14,39.38,39.38,0,0,1-10.89,9.47,48.55,48.55,0,0,1-12.23,5.14l32.1,101.88,8.79,13.82Zm-96.29-141,44.59.4a25.62,25.62,0,0,0,5-.8,18.27,18.27,0,0,0,6.72-3.18,20.74,20.74,0,0,0,5.76-7q2.52-4.59,2.51-12.56,0-10.35-5.38-15.93a16.3,16.3,0,0,0-5-3c-1.79-.67-3.46-1.27-5-1.8a20,20,0,0,0-5.77-.8H310.3Z" fill="#9b7dae"/><path d="M469.26,1639.55H434.1a.34.34,0,0,1-.38-.39l5.35-14.22V1442.51l-5.35-14.21v-.4h35.92v.4l-5.35,14.21v182.43l5.35,14.22Z" fill="#9b7dae"/><path d="M623.24,1639.16c.26,0,.26.14,0,.39H587.33v-.39l5.34-14.22v-99.11l-65.34-61.2v160.31l5.73,14.22-.38.39H497.15a.34.34,0,0,1-.39-.39l5.35-14.22v-182l-5.35-14.6.39-.4h28.66l66.86,62.39V1442.9l-5.34-14.6c-.27,0-.27-.13,0-.4h35.91l.38.4-5.73,14.6v182Z" fill="#9b7dae"/><path d="M770.36,1638.37c0,.79-.27,1.18-.78,1.18H737.49c-.51,0-.76-.25-.76-.79l.76-14.21L700.81,1504.9l-20.25,21.72v98.32l5.34,13.43c0,.79-.25,1.18-.76,1.18H650.75c-.51,0-.76-.39-.76-1.18l5.34-13.43v-182L650,1429.08c0-.78.25-1.18.76-1.18h34.39c.51,0,.76.4.76,1.18l-5.34,13.43v46.2l48.9-52.91,2.68-7.11c0-.52.13-.79.38-.79h40.12c1,0,1.15.4.38,1.18L762,1438.56l-41.27,44.62,43.17,141.37Z" fill="#9b7dae"/><path d="M1192.94,1639.58H1150.2c-.64,0-.94-.47-.94-1.4l6.57-16.27V1398.34l-66.22,146.46q-1.41,2.33-2.35,0l-70.45-153.89v276a73.23,73.23,0,0,1-2.12,16,105.52,105.52,0,0,1-6.81,19.77A68.39,68.39,0,0,1,994.74,1722q-22.54,23.25-61.53,23.25-23.49,0-42.28-11.86t-29.11-33.24a95.7,95.7,0,0,1-8.45-49.29q2.34-25.56,17.84-44.16,13.62-16.27,31.23-22.09a53.23,53.23,0,0,1,35,.23,51.41,51.41,0,0,1,26.3,19.76,54.48,54.48,0,0,1,9.86,31.85q0,16.74-8.46,25.57a24.1,24.1,0,0,1-10.56,6.74,23,23,0,0,1-12,.94,20.22,20.22,0,0,1-9.86-5.12q-4.23-3.94-4.23-11.39H928a21.57,21.57,0,0,0,9.86-3.49q4.7-3,4.7-13.25a23.75,23.75,0,0,0-4.23-14,21.8,21.8,0,0,0-11.27-8.37q-16.9-5.58-31.94,12.09-9.39,11.63-10.79,28.59A61.17,61.17,0,0,0,890,1686.7a82.28,82.28,0,0,0,5.16,8.59,39.19,39.19,0,0,0,8.7,9.07,56.54,56.54,0,0,0,12.44,7.21,42.85,42.85,0,0,0,16.91,3q25.83,0,38.51-13.95a42.39,42.39,0,0,0,8.46-13,84.23,84.23,0,0,0,4.23-13.49,78.06,78.06,0,0,0,1.4-14.41V1341.16l-6.58-16.74c0-.93.32-1.4.95-1.4h39.91l68.11,149.25L1155.83,1323h37.11c1.25,0,1.4.47.46,1.4l-6.57,16.74v280.75l6.57,16.27C1193.72,1639.11,1193.56,1639.58,1192.94,1639.58Z" fill="#9b7dae"/><path d="M1330.77,1638l-1.14,3.13q0,1.17-.75.39l-6.44-2H1227q-.75,0-.75-1.17l5.3-13.3V1444.33l-5.3-13.3c0-.79.25-1.18.75-1.18h80.65l5.67-1.95a1.1,1.1,0,0,1,.76.39l10.6,29c0,.53-.26.78-.75.78l-12.12-2h-55.28v45.39h45l11.36-2a.68.68,0,0,1,.76.78l-1.13,2.35-7.58,23.47-.75,3.14a1.53,1.53,0,0,1-1.14.39l-5.68-2.35h-40.89v86.46h70.8l11-2c.5,0,.76.39.76,1.17Z" fill="#9b7dae"/></svg>